<?xml version="1.0" encoding="utf-8"?>
<!-- Generator: Adobe Illustrator 16.0.0, SVG Export Plug-In . SVG Version: 6.00 Build 0)  -->
<!DOCTYPE svg PUBLIC "-//W3C//DTD SVG 1.1//EN" "http://www.w3.org/Graphics/SVG/1.1/DTD/svg11.dtd">
<svg version="1.1" id="Layer_1" xmlns="http://www.w3.org/2000/svg" xmlns:xlink="http://www.w3.org/1999/xlink" x="0px" y="0px"
	 width="1874px" height="474px" viewBox="0 0 1874 474" enable-background="new 0 0 1874 474" xml:space="preserve">
<g>
	<path fill="none" d="M371.614,40.167c-7.836-6.037-31.398,1.421-48.19,11.551c-15.231,10.376-24.472,23.3-24.472,23.3
		l-39.719,64.049c-1.349-0.014-19.412-24.797-38.901-15.135c-44.97,22.294-112.337,91.48-106.53,96.675
		c8.096,6.299,13.131,107.927,62.856,93.569c16.146-4.61,58.764,54.198,58.764,54.198l107.651-67.537
		c0,0-38.757-127.06-38.915-127.478l54.859-53.658c0,0,12.483-13.21,17.13-32.457C381.451,68.901,380.354,45.547,371.614,40.167z"/>
	<path fill="none" d="M381.949,88.782c-4.988,20.493-18.018,34.456-18.571,35.041c-0.054,0.057-0.109,0.113-0.166,0.168
		l-52.247,51.104c2.578,8.409,10.869,35.55,37.847,123.991c0.791,2.594-0.254,5.395-2.55,6.834L238.61,373.457
		c-0.988,0.619-2.092,0.917-3.184,0.917c-1.864,0-3.694-0.867-4.863-2.479c-0.097-0.135-9.879-13.596-21.593-26.838
		c-21.166-23.928-29.017-25.14-30.375-25.14c-0.181,0-0.267,0.021-0.29,0.027c-3.711,1.07-7.384,1.616-10.901,1.618
		c-0.002,0-0.006,0-0.008,0c-34.409,0.002-45.967-49.408-52.875-78.932c-1.627-6.955-3.642-15.565-4.878-17.7
		c-1.684-1.603-2.453-3.941-2.112-6.453c1.504-11.091,33.458-41.466,39.849-47.442c12.067-11.285,43.071-38.99,70.287-52.482
		c3.828-1.898,7.873-2.86,12.022-2.86c12.195,0,22.34,8.157,28.354,13.906l35.811-57.746c0.069-0.112,0.142-0.221,0.218-0.328
		c0.403-0.563,10.045-13.917,25.976-24.769c0.091-0.062,0.184-0.122,0.278-0.179C332.355,39.323,350.28,32,363.208,32
		c4.923,0,8.896,1.083,11.813,3.222C387.87,43.52,386.779,71.948,381.949,88.782z"/>
</g>
<path d="M255.273,396.91l214.306-166.34l-121.386-91.888l15.017-14.688c0.056-0.055,0.111-0.111,0.166-0.168
	c0.553-0.585,13.583-14.548,18.571-35.041c4.832-16.836,5.923-45.264-6.926-53.562c-2.917-2.139-6.89-3.222-11.813-3.222
	c-12.928,0-30.853,7.323-42.883,14.58c-0.094,0.057-0.187,0.117-0.278,0.179c-15.931,10.852-25.573,24.206-25.976,24.769
	c-0.076,0.107-0.149,0.216-0.218,0.328l-10.842,17.483L250.65,64.842L28,230.57l220.953,167.271L94.763,289.337
	c-15.181,26.44-11.499,62.083-11.499,62.083s8.872-2.614,24.516,0.126v28.638c-5.306,2.157-8.727,7.882-8.727,14.094
	c0,3.879,1.103,7.284,3.026,9.866c-1.53,4.535-2.894,12.779,1.711,23.013c7.895,16.579,0,14.21,7.105,12.631
	c5.526,0,15-13.421,15-24.475c0-7.385-1.411-11.599-2.346-13.579c0.995-2.159,1.557-4.687,1.557-7.455
	c0-5.659-2.838-10.912-7.063-13.434v-26.927c14.141,4.039,32.08,12.24,52.853,28.292c52.105,40.263,51.316,45,80.526,75
	c26.053-30,30.132-34.696,79.737-75c50.527-41.053,84.474-30.79,84.474-30.79s0-30.219-14.337-55.648L255.273,396.91z
	 M305.224,261.186c-2.368,0.789-4.737,0-3.158,6.315c-2.368,0.789-4.736,0-5.526-2.369c-0.627-1.882-0.257-4.264,1.507-5.558
	c-1.039-0.307-2.595-1.195-3.206-3.028c0-1.579,0.789-3.157,2.368-3.946c1.59-0.529,2.825,0.008,3.703,0.896
	c0.506-0.447,1.151-0.795,1.944-0.993c2.368-0.79,4.736,1.579,5.526,3.157C309.171,258.027,307.592,260.396,305.224,261.186z
	 M293.03,290.609c-2.368,0.791-4.737-1.578-5.526-3.156c-0.79-2.369,0.789-4.737,3.158-5.526c1.578-0.79,4.736,0,5.526,2.368
	C296.977,286.663,295.399,289.82,293.03,290.609z M228.884,323.923c-2.35,2.41-5.269,4.336-8.623,5.534
	c-11.052,3.157-22.895-3.158-26.842-14.211c-1.135-3.971-1.047-8.045,0.045-11.816c-6.77,1.652-13.311-2.937-14.818-8.965
	c-0.025-0.074-0.072-0.222-0.072-0.222c-8.315,1.526-17.529-2.495-19.758-11.407c-1.807-4.971-0.77-10.457,2.223-14.686
	c-1.799-2.076-3.25-4.51-4.222-7.232c-2.388-8.357,0.642-17.167,7.04-22.673c0.562-8.612,6.315-16.557,14.978-19.651
	c6.076-1.736,12.39-0.609,17.5,2.594c1.853-2.038,4.091-3.679,6.618-4.773c1.71-4.83,5.477-9.027,10.638-10.434
	c6.439-2.342,13.746,0.091,18.059,5.045l4.261-8.402H224l15.971-12.366l-7.438-1.153l13.474-11.295l-0.753-0.668
	c-7.797-1.235-32.093-4.283-55.655,3.175c21.646-35.739,56.658-39.785,68.601-39.492l29.655-47.819l-0.039-0.029l11.136-17.958
	c0,0,9.241-12.924,24.472-23.3c16.792-10.13,40.354-17.588,48.19-11.551c8.74,5.379,9.837,28.733,4.533,47.077
	c-4.647,19.247-17.13,32.457-17.13,32.457l-54.859,53.658c0.006,0.016,0.07,0.224,0.178,0.573l-1.21,1.184
	c2.131,6.732,8.309,48.475-26.1,78.994c3.585-22.633-2.726-44.733-5.934-53.082l-3.808,10.005l-4.492-5.931l-6.705,18.226
	l-3.669-9.848l-6.769,7.145v-9.302l-10.844,5.347c0.036,0.12,0.071,0.241,0.104,0.362c0.31,1.139,0.499,2.305,0.57,3.476
	c4.915,1.804,9.026,5.813,10.416,10.911c2.281,8.361-2.024,18.184-10.8,21.018c0.526,1.166,0.989,2.371,1.384,3.61
	c1.932,6.623,2.03,13.247,0.566,19.298c2.189,2.463,3.871,5.545,4.829,9.135c0.987,2.764,1.332,5.576,1.135,8.289
	c11.782-3.031,24.291,3.285,28.215,15.844c0.273,0.956,0.476,1.924,0.609,2.896c0.54,0.176,1.064,0.388,1.568,0.631
	c-0.377-0.556-0.712-1.189-0.996-1.899c-0.789-2.369,1.579-6.316,4.737-7.896c0.813-0.203,1.626-0.197,2.412-0.021
	c-0.554-0.684-1.037-1.51-1.425-2.479c-0.789-2.371,1.579-6.318,4.737-7.896c3.158-0.789,6.316,1.578,7.895,4.736
	c0.789,3.16-0.79,6.316-4.737,7.896c-0.89,0.224-1.781,0.257-2.635,0.104c0.277,0.301,0.538,0.621,0.78,0.959
	c4.591-1.192,9.723,1.203,11.235,6.495c1.579,4.738-1.579,10.265-6.316,11.844c-3.506,1.001-6.694,0.097-8.96-1.909
	c0.935,6.328-2.261,12.604-8.512,13.994c-4.114,1.371-8.227,0.36-11.268-1.958c-1.509,0.862-3.15,1.583-4.915,2.134
	C245.246,339.155,233.718,334.018,228.884,323.923z"/>
<path d="M474.524,100h22.997h129.524v37.433l-22.731,24.325H524.43v138.246h38.436v-66.347l12.526-13.06l9.731-10.145l55.88,0.025
	v156.194H474.524c-19.811,0-33.524-13.715-33.524-33.144v-74.305l28.573-28.935L441,202.927v-69.784
	C441,113.714,454.714,100,474.524,100z"/>
<path d="M667.005,118.642h153.596c17.886,0,30.51,12.732,30.51,30.771v97.262c0,11.673-8.768,24.759-20.339,27.941l24.196,60.833
	v30.77h-75.044l-20.689-77.102h-15.431v77.102h-76.798L667.005,118.642L667.005,118.642z M744.322,181.013v46.424h30.832v-46.424
	H744.322z"/>
<path d="M904.095,118.642h128.995l34.729,217.236v30.832H990.21l-4.606-49.969h-34.021l-4.962,49.969h-77.255v-30.832
	L904.095,118.642z M957.252,254.725h22.681l-7.088-73.71h-8.505L957.252,254.725z"/>
<path d="M1168.102,180.805v124.538h31.188V180.805H1168.102z M1090.847,367.79V118h154.865c18.073,0,30.831,12.846,30.831,31.045
	v187.7c0,18.199-12.758,31.045-30.831,31.045H1090.847z"/>
<polyline points="1434.105,274.297 1490.079,274.297 1490.079,205.47 1405.328,205.47 1405.328,161.027 1477.562,161.027 
	1500.054,136.75 1500.054,100 1319,100 1319,367.116 1405.328,367.116 1405.328,274.297 "/>
<polyline points="1521.443,367.897 1675.576,367.897 1675.576,305.424 1598.158,305.424 1598.158,118 1521.443,118 
	1521.443,367.897 "/>
<polyline points="1705.323,299.297 1705.323,367.327 1782.151,367.327 1782.151,299.297 1842.415,148.988 1842.415,118 
	1765.587,118 1746.556,214.882 1740.917,214.882 1722.239,118 1645.058,118 1645.058,148.988 1705.323,299.297 "/>
</svg>
